<?xml version="1.0" encoding="UTF-8"?>
<!DOCTYPE svg PUBLIC "-//W3C//DTD SVG 1.1//EN" "http://www.w3.org/Graphics/SVG/1.1/DTD/svg11.dtd">
<!-- Creator: CorelDRAW -->
<svg xmlns="http://www.w3.org/2000/svg" fill="#1E1E1E" xml:space="preserve" width="2048px" height="2048px" style="shape-rendering:geometricPrecision; text-rendering:geometricPrecision; image-rendering:optimizeQuality; fill-rule:evenodd; clip-rule:evenodd"
viewBox="0 0 2048 2048"
 xmlns:xlink="http://www.w3.org/1999/xlink">
 <defs>
  <style type="text/css">
   <![CDATA[
    .fil2 {fill:none}
    .fil1 {fill:#424242}
    .fil0 {fill:#424242;fill-rule:nonzero}
   ]]>
  </style>
 </defs>
 <g id="Layer_x0020_1">
  <metadata id="CorelCorpID_0Corel-Layer"/>
  <path class="fil0" d="M367.231 469.072c30.711,0 58.5213,12.4512 78.6497,32.5819 20.1307,20.1284 32.5819,47.9374 32.5819,78.6497 0,30.711 -12.4524,58.5189 -32.5819,78.6497 -20.1307,20.1295 -47.9386,32.5819 -78.6497,32.5819 -30.711,0 -58.5201,-12.4512 -78.6508,-32.5819 -20.1284,-20.1284 -32.5819,-47.9386 -32.5819,-78.6497 0,-30.7122 12.4512,-58.5213 32.5819,-78.6497 20.1307,-20.1307 47.9386,-32.5819 78.6508,-32.5819z"/>
  <path class="fil0" d="M1033.12 469.072c30.7134,0 58.5213,12.4512 78.6497,32.5819 20.1307,20.1284 32.5819,47.9363 32.5819,78.6497 0,30.711 -12.4512,58.5213 -32.5819,78.6497 -20.1284,20.1307 -47.9374,32.5819 -78.6497,32.5819 -30.7122,0 -58.5213,-12.4512 -78.6497,-32.5819 -20.1307,-20.1284 -32.5819,-47.9386 -32.5819,-78.6497 0,-30.7134 12.4512,-58.5213 32.5819,-78.6497 20.1284,-20.1307 47.9363,-32.5819 78.6497,-32.5819z"/>
  <path class="fil0" d="M1680.77 469.072c30.7122,0 58.5201,12.4512 78.6508,32.5819 20.1307,20.1284 32.5819,47.9374 32.5819,78.6497 0,30.711 -12.4536,58.5213 -32.5819,78.6497 -20.1307,20.1307 -47.9398,32.5819 -78.6508,32.5819 -30.711,0 -58.5189,-12.4524 -78.6497,-32.5819 -20.1295,-20.1307 -32.5819,-47.9386 -32.5819,-78.6497 0,-30.7122 12.4512,-58.5213 32.5819,-78.6497 20.1284,-20.1307 47.9386,-32.5819 78.6497,-32.5819z"/>
  <path class="fil1" d="M1285.82 1001.48l-182.531 -334.875 -14.8134 -27.176 -55.3559 30.15 -55.3548 -30.1488 -14.8134 27.176 -182.531 334.873 -329.002 -348.486 -23.3965 -24.7819 -31.4445 29.5855 -44.8111 0 0 32.667 0 602.92c0,84.5457 80.5064,158.236 210.666,209.029 121.136,47.2713 287.718,76.5107 471.032,76.5107 183.313,0 349.897,-29.2394 471.032,-76.5107 130.16,-50.7945 210.667,-124.484 210.667,-209.029l-0.689764 0 0 -607.053 0 -26.8229 -54.1512 0 -27.3532 -25.7362 -27.1264 28.7327 -320.023 338.974zm-252.356 164.825c39.4642,0 75.1961,15.9992 101.061,41.8642 25.865,25.8662 41.8642,61.5981 41.8642,101.061 0,39.463 -15.9992,75.1949 -41.8642,101.061 -25.8662,25.865 -61.5981,41.8642 -101.061,41.8642 -39.463,0 -75.1949,-15.9992 -101.061,-41.8642 -25.865,-25.8662 -41.8642,-61.5981 -41.8642,-101.061 0,-39.463 15.9992,-75.1949 41.8642,-101.061 25.865,-25.865 61.5969,-41.8642 101.061,-41.8642z"/>
 </g>
 <rect class="fil2" width="2048" height="2048"/>
</svg>
